<?xml version="1.0" encoding="UTF-8" standalone="no"?>
<!DOCTYPE svg PUBLIC "-//W3C//DTD SVG 1.1//EN" "http://www.w3.org/Graphics/SVG/1.1/DTD/svg11.dtd">
<svg width="100%" height="100%" viewBox="0 0 32 32" version="1.1" xmlns="http://www.w3.org/2000/svg" xmlns:xlink="http://www.w3.org/1999/xlink" xml:space="preserve" xmlns:serif="http://www.serif.com/" style="fill-rule:evenodd;clip-rule:evenodd;stroke-linejoin:round;stroke-miterlimit:2;">
    <g transform="matrix(1,0,0,1,-6967,-2641)">
        <g id="Artboard3" transform="matrix(0.335078,0,0,0.335078,4632.4,1755.98)">
            <rect x="6967.32" y="2641.25" width="95.5" height="95.5" style="fill:rgb(155,93,229);"/>
            <g transform="matrix(-0.149323,0.149323,0.149323,0.149323,6903.77,2544.75)">
                <path d="M255.381,806.577L156.011,707.208C128.59,679.786 84.064,679.786 56.642,707.208L-42.727,806.577C-70.149,833.999 -70.149,878.524 -42.727,905.946L56.642,1005.32C84.064,1032.74 128.59,1032.74 156.011,1005.32L187.838,973.489L241.413,991.348L223.554,937.772L255.381,905.946C282.802,878.524 282.802,833.999 255.381,806.577ZM169.334,842.155C190.095,862.916 190.095,896.627 169.334,917.388C148.573,938.149 114.862,938.149 94.101,917.388L169.334,842.155ZM35.574,851.043C45.954,840.663 62.81,840.663 73.19,851.043C83.57,861.424 83.57,878.279 73.19,888.659C62.81,899.04 45.954,899.04 35.574,888.659C25.193,878.279 25.193,861.424 35.574,851.043ZM101.108,785.509C111.489,775.128 128.344,775.128 138.725,785.509C149.105,795.889 149.105,812.744 138.725,823.125C128.344,833.505 111.489,833.505 101.108,823.125C90.728,812.744 90.728,795.889 101.108,785.509Z" style="fill:white;"/>
            </g>
        </g>
    </g>
</svg>
